<svg width="430" height="300" viewBox="0 0 430 300" fill="none" xmlns="http://www.w3.org/2000/svg">
<path d="M308.4 63.1698H101.496V225.782H308.4V63.1698Z" stroke="url(#paint0_linear_4180_7125)" stroke-width="1.13622" stroke-miterlimit="10"/>
<path d="M101.548 225.198V225.71H102.06H307.807H308.319V225.198V82.1578V81.646H307.807H102.06H101.548V82.1578V225.198ZM308.493 225.833H101.445V81.5027H308.493V225.833Z" fill="#D36775" stroke="url(#paint1_linear_4180_7125)" stroke-width="1.02362"/>
<path d="M108.907 75.0437C110.575 75.0437 111.927 73.6918 111.927 72.0241C111.927 70.3563 110.575 69.0044 108.907 69.0044C107.24 69.0044 105.888 70.3563 105.888 72.0241C105.888 73.6918 107.24 75.0437 108.907 75.0437Z" stroke="url(#paint2_linear_4180_7125)" stroke-width="1.13622" stroke-miterlimit="10"/>
<path d="M121.742 75.0437C123.41 75.0437 124.762 73.6918 124.762 72.0241C124.762 70.3563 123.41 69.0044 121.742 69.0044C120.075 69.0044 118.723 70.3563 118.723 72.0241C118.723 73.6918 120.075 75.0437 121.742 75.0437Z" stroke="url(#paint3_linear_4180_7125)" stroke-width="1.13622" stroke-miterlimit="10"/>
<path d="M134.579 75.0437C136.247 75.0437 137.599 73.6918 137.599 72.0241C137.599 70.3563 136.247 69.0044 134.579 69.0044C132.912 69.0044 131.56 70.3563 131.56 72.0241C131.56 73.6918 132.912 75.0437 134.579 75.0437Z" stroke="url(#paint4_linear_4180_7125)" stroke-width="1.13622" stroke-miterlimit="10"/>
<path d="M237.216 77.4595H152.061C150.704 77.4595 149.402 76.9202 148.442 75.9604C147.483 75.0006 146.943 73.6988 146.943 72.3414C146.943 70.984 147.483 69.6822 148.442 68.7223C149.402 67.7625 150.704 67.2233 152.061 67.2233H237.216C238.574 67.2233 239.876 67.7625 240.835 68.7223C241.795 69.6822 242.334 70.984 242.334 72.3414C242.334 73.6988 241.795 75.0006 240.835 75.9604C239.876 76.9202 238.574 77.4595 237.216 77.4595Z" stroke="url(#paint5_linear_4180_7125)" stroke-width="1.13622" stroke-miterlimit="10"/>
<path d="M295.8 77.4595H255.479C254.122 77.4595 252.82 76.9202 251.86 75.9604C250.901 75.0006 250.361 73.6988 250.361 72.3414C250.361 70.984 250.901 69.6822 251.86 68.7223C252.82 67.7625 254.122 67.2233 255.479 67.2233H295.8C297.157 67.2233 298.459 67.7625 299.419 68.7223C300.379 69.6822 300.918 70.984 300.918 72.3414C300.918 73.6988 300.379 75.0006 299.419 75.9604C298.459 76.9202 297.157 77.4595 295.8 77.4595Z" stroke="url(#paint6_linear_4180_7125)" stroke-width="1.13622" stroke-miterlimit="10"/>
<path d="M191.615 145.837H118.017V187.386H191.615V145.837Z" stroke="url(#paint7_linear_4180_7125)" stroke-width="1.13622" stroke-miterlimit="10" stroke-dasharray="5.67 5.67"/>
<path d="M191.615 94.8406H118.017V136.389H191.615V94.8406Z" stroke="url(#paint8_linear_4180_7125)" stroke-width="1.13622" stroke-miterlimit="10" stroke-dasharray="5.67 5.67"/>
<path d="M190.97 197.878H118.651V201.133H190.97V197.878Z" stroke="url(#paint9_linear_4180_7125)" stroke-width="1.13622" stroke-miterlimit="10"/>
<path d="M190.97 208.718H118.651V211.973H190.97V208.718Z" stroke="url(#paint10_linear_4180_7125)" stroke-width="1.13622" stroke-miterlimit="10"/>
<path d="M289.38 197.878H217.062V201.133H289.38V197.878Z" stroke="url(#paint11_linear_4180_7125)" stroke-width="1.13622" stroke-miterlimit="10"/>
<path d="M289.38 208.718H217.062V211.973H289.38V208.718Z" stroke="url(#paint12_linear_4180_7125)" stroke-width="1.13622" stroke-miterlimit="10"/>
<path d="M51.7178 52.9028C51.7137 59.3232 52.9752 65.6814 55.43 71.6139C57.8847 77.5464 61.4847 82.9369 66.0241 87.4773C70.5635 92.0176 75.9533 95.6188 81.8853 98.0748C87.8173 100.531 94.1752 101.794 100.596 101.791" stroke="url(#paint13_linear_4180_7125)" stroke-width="1.13622" stroke-miterlimit="10" stroke-dasharray="5.67 5.67"/>
<path d="M308.36 263.113C329.961 263.113 347.472 245.602 347.472 224.001C347.472 202.4 329.961 184.888 308.36 184.888C286.758 184.888 269.247 202.4 269.247 224.001C269.247 245.602 286.758 263.113 308.36 263.113Z" stroke="url(#paint14_linear_4180_7125)" stroke-width="1.13622" stroke-miterlimit="10" stroke-dasharray="5.67 5.67"/>
<path d="M18.6446 132.807C28.1364 132.807 35.8311 125.112 35.8311 115.62C35.8311 106.128 28.1364 98.4335 18.6446 98.4335C9.1527 98.4335 1.45801 106.128 1.45801 115.62C1.45801 125.112 9.1527 132.807 18.6446 132.807Z" stroke="url(#paint15_linear_4180_7125)" stroke-width="1.13622" stroke-miterlimit="10" stroke-dasharray="5.67 5.67"/>
<path d="M382.643 272.776C392.135 272.776 399.829 265.082 399.829 255.59C399.829 246.098 392.135 238.403 382.643 238.403C373.151 238.403 365.456 246.098 365.456 255.59C365.456 265.082 373.151 272.776 382.643 272.776Z" stroke="url(#paint16_linear_4180_7125)" stroke-width="1.13622" stroke-miterlimit="10" stroke-dasharray="5.67 5.67"/>
<path d="M18.6446 202.085C28.1364 202.085 35.8311 194.39 35.8311 184.898C35.8311 175.407 28.1364 167.712 18.6446 167.712C9.1527 167.712 1.45801 175.407 1.45801 184.898C1.45801 194.39 9.1527 202.085 18.6446 202.085Z" stroke="url(#paint17_linear_4180_7125)" stroke-width="1.13622" stroke-miterlimit="10" stroke-dasharray="5.67 5.67"/>
<path d="M274.396 54.4279C282.616 54.4279 289.28 47.7643 289.28 39.5444C289.28 31.3245 282.616 24.661 274.396 24.661C266.176 24.661 259.513 31.3245 259.513 39.5444C259.513 47.7643 266.176 54.4279 274.396 54.4279Z" stroke="url(#paint18_linear_4180_7125)" stroke-width="1.13622" stroke-miterlimit="10" stroke-dasharray="5.67 5.67"/>
<path d="M224.637 144.527H220.091V144.394H224.635L224.637 144.527ZM293.247 94.7892L293.262 95.8537H293.137V95.4136V94.9018H292.625H289.687V94.7892H293.247ZM292.68 144.414L292.683 144.527H288.019V144.414H292.68ZM281.355 144.527H276.708V144.414H281.355V144.527ZM270.013 144.527H265.366V144.414H270.013V144.527ZM258.672 144.527H254.024V144.414H258.672V144.527ZM247.324 144.414L247.325 144.527H242.672V144.414H247.324ZM235.988 144.527H231.341V144.414H235.988V144.527ZM293.277 141.374H293.137V136.727H293.252L293.277 141.374ZM219.651 138.17H219.539V133.523H219.651V138.17ZM293.277 129.981H293.137V125.395H293.252L293.277 129.981ZM219.641 126.828H219.528V122.181H219.641V126.828ZM293.268 118.639H293.137V114.033H293.251L293.268 118.639ZM219.641 115.436H219.528V110.788H219.641V115.436ZM293.268 107.247H293.137V102.691H293.251L293.268 107.247ZM219.641 104.043H219.528V99.4876H219.641V104.043Z" fill="#D36775" stroke="url(#paint19_linear_4180_7125)" stroke-width="1.02362"/>
<path d="M287.508 30.1684C296.179 30.1603 304.766 31.8618 312.779 35.1757C320.791 38.4895 328.072 43.3506 334.204 49.4809C340.336 55.6112 345.2 62.8904 348.516 70.902C351.832 78.9136 353.537 87.5004 353.531 96.1713V131.998C353.531 142.896 351.263 153.674 346.869 163.647C342.476 173.62 336.054 182.569 328.012 189.925L327.849 190.078" stroke="url(#paint20_linear_4180_7125)" stroke-width="1.13622" stroke-miterlimit="10" stroke-dasharray="5.67 5.67"/>
<path d="M93.2575 30.1683H35.8223V52.9029H93.2575V30.1683Z" stroke="url(#paint21_linear_4180_7125)" stroke-width="1.13622" stroke-miterlimit="10" stroke-dasharray="5.67 5.67"/>
<path d="M93.2575 251.741H35.8223V274.475H93.2575V251.741Z" stroke="url(#paint22_linear_4180_7125)" stroke-width="1.13622" stroke-miterlimit="10" stroke-dasharray="5.67 5.67"/>
<path d="M428.542 155.234H371.106V177.969H428.542V155.234Z" stroke="url(#paint23_linear_4180_7125)" stroke-width="1.13622" stroke-miterlimit="10" stroke-dasharray="5.67 5.67"/>
<path d="M101.496 225.782L93.2656 251.741" stroke="url(#paint24_linear_4180_7125)" stroke-width="1.13622" stroke-miterlimit="10" stroke-dasharray="5.67 5.67"/>
<path d="M266.013 251.741H137.6V274.475H266.013V251.741Z" stroke="url(#paint25_linear_4180_7125)" stroke-width="1.13622" stroke-miterlimit="10" stroke-dasharray="5.67 5.67"/>
<path opacity="0.3" d="M228.185 296.66L212.395 298.952L211.72 298.799L211.72 298.799L208.516 298.072L208.403 298.571L208.516 298.072L104.69 274.529L104.69 274.529L100.913 273.669L100.913 273.669C100.272 273.524 99.6667 273.255 99.1306 272.876C98.5945 272.497 98.1384 272.016 97.7883 271.461C97.4382 270.905 97.201 270.287 97.0902 269.64C96.9795 268.993 96.9974 268.33 97.1428 267.69C97.1428 267.69 97.1429 267.69 97.1429 267.69L97.4698 266.259C97.7749 264.977 98.5742 263.868 99.6938 263.172C100.814 262.477 102.164 262.252 103.449 262.548L103.453 262.548L107.238 263.387L107.24 263.388L211.043 286.951L211.043 286.951L214.247 287.678L214.247 287.678L214.923 287.831L228.185 296.66Z" fill="#516092" stroke="url(#paint26_linear_4180_7125)" stroke-width="1.02362"/>
<path d="M94.8141 274.927L91.5363 274.181L91.5356 274.181C90.8953 274.036 90.2897 273.767 89.7537 273.388C89.2176 273.009 88.7614 272.528 88.4113 271.973C88.0612 271.417 87.824 270.798 87.7133 270.151C87.6026 269.504 87.6204 268.842 87.7658 268.202C87.7659 268.202 87.7659 268.202 87.7659 268.202L88.0933 266.769L88.0936 266.768C88.2384 266.128 88.5079 265.522 88.8868 264.986C89.2658 264.45 89.7466 263.994 90.302 263.644C90.8573 263.294 91.4762 263.056 92.1233 262.946C92.7703 262.835 93.4328 262.853 94.0729 262.998C94.073 262.998 94.073 262.998 94.0731 262.998L97.3514 263.745L94.8141 274.927Z" fill="#EF9875" stroke="url(#paint27_linear_4180_7125)" stroke-width="1.02362"/>
<path d="M95.8146 275.144L98.3517 263.971L204.783 288.118L205.114 288.334L202.641 299.244L202.258 299.291L95.8146 275.144Z" fill="#EAD971" stroke="url(#paint28_linear_4180_7125)" stroke-width="1.02362"/>
<path d="M97.1734 269.06L97.3751 268.171L204.175 292.416L203.973 293.305L97.1734 269.06Z" fill="#0058A0" stroke="url(#paint29_linear_4180_7125)" stroke-width="1.02362"/>
<path d="M95.789 275.143L95.8887 274.704L202.688 298.948L202.589 299.388L95.789 275.143Z" fill="#0058A0" stroke="url(#paint30_linear_4180_7125)" stroke-width="1.02362"/>
<mask id="path-32-inside-1_4180_7125" fill="white">
<path d="M205.728 287.823L97.9297 263.352L97.7144 264.3L205.512 288.771L205.728 287.823Z"/>
</mask>
<path d="M205.728 287.823L97.9297 263.352L97.7144 264.3L205.512 288.771L205.728 287.823Z" fill="#0058A0"/>
<path d="M97.9297 263.352L98.1563 262.353L97.1581 262.127L96.9315 263.125L97.9297 263.352ZM205.728 287.823L206.726 288.049L206.952 287.051L205.954 286.825L205.728 287.823ZM205.512 288.771L205.286 289.769L206.284 289.996L206.511 288.998L205.512 288.771ZM97.7144 264.3L96.7162 264.073L96.4896 265.071L97.4878 265.298L97.7144 264.3ZM97.7031 264.35L205.501 288.821L205.954 286.825L98.1563 262.353L97.7031 264.35ZM204.729 287.596L204.514 288.545L206.511 288.998L206.726 288.049L204.729 287.596ZM205.739 287.773L97.941 263.302L97.4878 265.298L205.286 289.769L205.739 287.773ZM98.7126 264.526L98.9279 263.578L96.9315 263.125L96.7162 264.073L98.7126 264.526Z" fill="url(#paint31_linear_4180_7125)" mask="url(#path-32-inside-1_4180_7125)"/>
<path d="M218.776 297.171L202.978 299.464L199.114 298.588C198.878 298.517 198.674 298.365 198.537 298.16L198.111 298.442L198.537 298.16C198.399 297.95 198.34 297.698 198.37 297.449C198.401 297.199 198.52 296.969 198.705 296.8C198.891 296.63 199.13 296.532 199.381 296.524L199.548 295.535C199.294 295.437 199.087 295.243 198.972 294.995C198.857 294.748 198.842 294.465 198.932 294.207C199.021 293.948 199.207 293.735 199.451 293.611C199.666 293.502 199.911 293.47 200.145 293.52C200.188 293.532 200.231 293.543 200.275 293.553L200.538 292.565C200.495 292.552 200.452 292.54 200.409 292.53C200.307 292.497 200.21 292.448 200.122 292.386C200.008 292.306 199.911 292.203 199.837 292.085C199.763 291.967 199.712 291.836 199.689 291.698C199.665 291.561 199.669 291.42 199.7 291.284C199.73 291.148 199.788 291.019 199.868 290.905C199.949 290.791 200.051 290.694 200.169 290.62C200.287 290.545 200.419 290.495 200.556 290.471C200.694 290.448 200.835 290.452 200.971 290.482L201.084 289.983L201.197 289.484C201.061 289.453 200.932 289.396 200.818 289.315C200.704 289.235 200.608 289.133 200.533 289.015C200.459 288.897 200.408 288.765 200.385 288.627C200.361 288.49 200.365 288.349 200.396 288.213C200.427 288.077 200.484 287.948 200.564 287.834L200.181 287.563L200.564 287.834C200.645 287.72 200.747 287.623 200.865 287.549C200.983 287.475 201.115 287.424 201.252 287.401C201.39 287.377 201.531 287.381 201.667 287.412C201.667 287.412 201.667 287.412 201.667 287.412L205.546 288.291L218.776 297.171Z" fill="#FFF9E9" stroke="url(#paint32_linear_4180_7125)" stroke-width="1.02362"/>
<path d="M212.96 295.872C213.162 295.153 213.592 294.522 214.181 294.072L218.814 297.171L213.054 298.009C212.797 297.328 212.762 296.579 212.96 295.872Z" fill="#516092" stroke="url(#paint33_linear_4180_7125)" stroke-width="1.02362"/>
<path opacity="0.3" d="M124.566 47.5066L137.252 37.8181L137.917 37.6203L137.919 37.6197L141.07 36.6991L141.07 36.699L243.196 6.77872L243.197 6.77859L246.912 5.69369L246.913 5.69344C247.543 5.50839 248.203 5.44927 248.855 5.51946C249.508 5.58965 250.14 5.78778 250.716 6.10251C251.292 6.41725 251.801 6.84243 252.212 7.35374C252.624 7.86495 252.931 8.45224 253.115 9.08204L124.566 47.5066ZM124.566 47.5066L140.473 48.8127L141.139 48.6148L141.141 48.6141L144.293 47.693L144.294 47.6929L246.42 17.7624L246.42 17.7622L250.135 16.6774L124.566 47.5066ZM253.115 9.08243L253.524 10.4844C253.895 11.755 253.747 13.1209 253.111 14.2821C252.476 15.4431 251.406 16.3045 250.136 16.6772L253.115 9.08243Z" fill="#516092" stroke="url(#paint34_linear_4180_7125)" stroke-width="1.02362"/>
<path d="M251.673 1.65989L254.896 0.718633L254.896 0.718637L254.898 0.718022C255.531 0.530517 256.194 0.470032 256.849 0.540055C257.505 0.610079 258.14 0.809226 258.719 1.12601C259.297 1.44279 259.807 1.87094 260.219 2.38576L260.618 2.06596L260.219 2.38576C260.631 2.90059 260.937 3.49189 261.119 4.12557L261.12 4.12747L261.529 5.52983L261.53 5.53067C261.715 6.16044 261.774 6.8205 261.703 7.47314C261.633 8.12577 261.435 8.75817 261.12 9.33418C260.806 9.9102 260.381 10.4185 259.869 10.8301C259.358 11.2417 258.771 11.5484 258.141 11.7329L251.673 1.65989ZM251.673 1.65989L254.915 12.6747L258.141 11.733L251.673 1.65989Z" fill="#EF9875" stroke="url(#paint35_linear_4180_7125)" stroke-width="1.02362"/>
<path d="M250.709 1.94764L253.932 12.9417L149.192 43.6236L148.799 43.5949L145.652 32.8644L145.968 32.63L250.709 1.94764Z" fill="#EAD971" stroke="url(#paint36_linear_4180_7125)" stroke-width="1.02362"/>
<path d="M252.467 7.94168L252.723 8.81595L147.624 39.6088L147.368 38.7345L252.467 7.94168Z" fill="#0058A0" stroke="url(#paint37_linear_4180_7125)" stroke-width="1.02362"/>
<path d="M250.713 1.95917L250.84 2.39139L145.741 33.1842L145.614 32.752L250.713 1.95917Z" fill="#0058A0" stroke="url(#paint38_linear_4180_7125)" stroke-width="1.02362"/>
<mask id="path-41-inside-2_4180_7125" fill="white">
<path d="M148.485 44.3804L254.566 13.2998L254.293 12.3666L148.212 43.4472L148.485 44.3804Z"/>
</mask>
<path d="M148.485 44.3804L254.566 13.2998L254.293 12.3666L148.212 43.4472L148.485 44.3804Z" fill="#0058A0"/>
<path d="M254.566 13.2998L254.854 14.2821L255.837 13.9943L255.549 13.012L254.566 13.2998ZM148.485 44.3804L147.503 44.6682L147.791 45.6506L148.773 45.3627L148.485 44.3804ZM148.212 43.4472L147.924 42.4649L146.942 42.7527L147.229 43.735L148.212 43.4472ZM254.293 12.3666L255.275 12.0788L254.988 11.0965L254.005 11.3843L254.293 12.3666ZM254.279 12.3175L148.197 43.3981L148.773 45.3627L254.854 14.2821L254.279 12.3175ZM149.468 44.0926L149.194 43.1594L147.229 43.735L147.503 44.6682L149.468 44.0926ZM148.5 44.4295L254.581 13.3489L254.005 11.3843L147.924 42.4649L148.5 44.4295ZM253.311 12.6544L253.584 13.5876L255.549 13.012L255.275 12.0788L253.311 12.6544Z" fill="url(#paint39_linear_4180_7125)" mask="url(#path-41-inside-2_4180_7125)"/>
<path d="M132.529 42.5419L145.214 32.854L149.033 31.7343L149.035 31.7336C149.286 31.6588 149.556 31.68 149.792 31.7932C150.028 31.9064 150.214 32.1034 150.313 32.3459C150.412 32.5883 150.417 32.8589 150.327 33.105C150.238 33.351 150.06 33.5549 149.828 33.6769L150.118 34.639C150.381 34.6124 150.645 34.686 150.857 34.8452C151.069 35.0043 151.213 35.2373 151.26 35.4979C151.308 35.7584 151.256 36.0274 151.115 36.2513C150.978 36.4672 150.768 36.6259 150.524 36.6985C150.511 36.702 150.498 36.7056 150.486 36.7094L150.762 37.6949C150.775 37.6915 150.788 37.6879 150.8 37.6842C150.925 37.6513 151.055 37.6416 151.183 37.6555C151.321 37.6705 151.455 37.7125 151.577 37.779C151.698 37.8456 151.806 37.9355 151.892 38.0436C151.979 38.1516 152.044 38.2757 152.083 38.4089C152.122 38.5419 152.134 38.6814 152.119 38.8193C152.104 38.9571 152.062 39.0907 151.996 39.2123C151.929 39.334 151.839 39.4413 151.731 39.5282C151.623 39.6151 151.499 39.6799 151.366 39.7188L151.51 40.21L151.653 40.7013C151.922 40.6226 152.211 40.654 152.457 40.7885C152.703 40.9229 152.885 41.1495 152.963 41.4183C153.042 41.6871 153.011 41.9761 152.876 42.2218C152.742 42.4674 152.515 42.6496 152.246 42.7283L152.246 42.7284L148.437 43.848L132.529 42.5419Z" fill="#FFF9E9" stroke="url(#paint40_linear_4180_7125)" stroke-width="1.02362"/>
<path d="M138.273 40.8209C138.447 41.5476 138.378 42.3082 138.082 42.988L132.528 42.5317L137.15 39C137.707 39.4697 138.102 40.1068 138.273 40.8209Z" fill="#516092" stroke="url(#paint41_linear_4180_7125)" stroke-width="1.02362"/>
<path d="M35.8223 115.62L154.818 166.606L35.8223 184.898" stroke="url(#paint42_linear_4180_7125)" stroke-width="1.13622" stroke-miterlimit="10" stroke-dasharray="5.67 5.67"/>
<path d="M371.108 166.606H259.513" stroke="url(#paint43_linear_4180_7125)" stroke-width="1.13622" stroke-miterlimit="10" stroke-dasharray="5.67 5.67"/>
<defs>
<linearGradient id="paint0_linear_4180_7125" x1="357.058" y1="213.322" x2="11.1834" y2="100.658" gradientUnits="userSpaceOnUse">
<stop offset="0.140625" stop-color="#B16CEA"/>
<stop offset="0.360444" stop-color="#E9628E"/>
<stop offset="0.447917" stop-color="#FF5E69"/>
<stop offset="0.71875" stop-color="#FF8A56"/>
<stop offset="1" stop-color="#FFA84B"/>
</linearGradient>
<linearGradient id="paint1_linear_4180_7125" x1="357.937" y1="215.207" x2="18.757" y2="90.9093" gradientUnits="userSpaceOnUse">
<stop offset="0.140625" stop-color="#B16CEA"/>
<stop offset="0.360444" stop-color="#E9628E"/>
<stop offset="0.447917" stop-color="#FF5E69"/>
<stop offset="0.71875" stop-color="#FF8A56"/>
<stop offset="1" stop-color="#FFA84B"/>
</linearGradient>
<linearGradient id="paint2_linear_4180_7125" x1="113.347" y1="74.581" x2="102.867" y2="71.898" gradientUnits="userSpaceOnUse">
<stop offset="0.140625" stop-color="#B16CEA"/>
<stop offset="0.360444" stop-color="#E9628E"/>
<stop offset="0.447917" stop-color="#FF5E69"/>
<stop offset="0.71875" stop-color="#FF8A56"/>
<stop offset="1" stop-color="#FFA84B"/>
</linearGradient>
<linearGradient id="paint3_linear_4180_7125" x1="126.182" y1="74.581" x2="115.702" y2="71.898" gradientUnits="userSpaceOnUse">
<stop offset="0.140625" stop-color="#B16CEA"/>
<stop offset="0.360444" stop-color="#E9628E"/>
<stop offset="0.447917" stop-color="#FF5E69"/>
<stop offset="0.71875" stop-color="#FF8A56"/>
<stop offset="1" stop-color="#FFA84B"/>
</linearGradient>
<linearGradient id="paint4_linear_4180_7125" x1="139.019" y1="74.581" x2="128.539" y2="71.898" gradientUnits="userSpaceOnUse">
<stop offset="0.140625" stop-color="#B16CEA"/>
<stop offset="0.360444" stop-color="#E9628E"/>
<stop offset="0.447917" stop-color="#FF5E69"/>
<stop offset="0.71875" stop-color="#FF8A56"/>
<stop offset="1" stop-color="#FFA84B"/>
</linearGradient>
<linearGradient id="paint5_linear_4180_7125" x1="264.768" y1="76.6751" x2="238.409" y2="13.7911" gradientUnits="userSpaceOnUse">
<stop offset="0.140625" stop-color="#B16CEA"/>
<stop offset="0.360444" stop-color="#E9628E"/>
<stop offset="0.447917" stop-color="#FF5E69"/>
<stop offset="0.71875" stop-color="#FF8A56"/>
<stop offset="1" stop-color="#FFA84B"/>
</linearGradient>
<linearGradient id="paint6_linear_4180_7125" x1="312.807" y1="76.6751" x2="276.836" y2="31.1921" gradientUnits="userSpaceOnUse">
<stop offset="0.140625" stop-color="#B16CEA"/>
<stop offset="0.360444" stop-color="#E9628E"/>
<stop offset="0.447917" stop-color="#FF5E69"/>
<stop offset="0.71875" stop-color="#FF8A56"/>
<stop offset="1" stop-color="#FFA84B"/>
</linearGradient>
<linearGradient id="paint7_linear_4180_7125" x1="208.923" y1="184.202" x2="96.0491" y2="133.016" gradientUnits="userSpaceOnUse">
<stop offset="0.140625" stop-color="#B16CEA"/>
<stop offset="0.360444" stop-color="#E9628E"/>
<stop offset="0.447917" stop-color="#FF5E69"/>
<stop offset="0.71875" stop-color="#FF8A56"/>
<stop offset="1" stop-color="#FFA84B"/>
</linearGradient>
<linearGradient id="paint8_linear_4180_7125" x1="208.923" y1="133.206" x2="96.0491" y2="82.0196" gradientUnits="userSpaceOnUse">
<stop offset="0.140625" stop-color="#B16CEA"/>
<stop offset="0.360444" stop-color="#E9628E"/>
<stop offset="0.447917" stop-color="#FF5E69"/>
<stop offset="0.71875" stop-color="#FF8A56"/>
<stop offset="1" stop-color="#FFA84B"/>
</linearGradient>
<linearGradient id="paint9_linear_4180_7125" x1="207.977" y1="200.884" x2="203.968" y2="178.078" gradientUnits="userSpaceOnUse">
<stop offset="0.140625" stop-color="#B16CEA"/>
<stop offset="0.360444" stop-color="#E9628E"/>
<stop offset="0.447917" stop-color="#FF5E69"/>
<stop offset="0.71875" stop-color="#FF8A56"/>
<stop offset="1" stop-color="#FFA84B"/>
</linearGradient>
<linearGradient id="paint10_linear_4180_7125" x1="207.977" y1="211.724" x2="203.968" y2="188.918" gradientUnits="userSpaceOnUse">
<stop offset="0.140625" stop-color="#B16CEA"/>
<stop offset="0.360444" stop-color="#E9628E"/>
<stop offset="0.447917" stop-color="#FF5E69"/>
<stop offset="0.71875" stop-color="#FF8A56"/>
<stop offset="1" stop-color="#FFA84B"/>
</linearGradient>
<linearGradient id="paint11_linear_4180_7125" x1="306.388" y1="200.884" x2="302.378" y2="178.078" gradientUnits="userSpaceOnUse">
<stop offset="0.140625" stop-color="#B16CEA"/>
<stop offset="0.360444" stop-color="#E9628E"/>
<stop offset="0.447917" stop-color="#FF5E69"/>
<stop offset="0.71875" stop-color="#FF8A56"/>
<stop offset="1" stop-color="#FFA84B"/>
</linearGradient>
<linearGradient id="paint12_linear_4180_7125" x1="306.388" y1="211.724" x2="302.378" y2="188.918" gradientUnits="userSpaceOnUse">
<stop offset="0.140625" stop-color="#B16CEA"/>
<stop offset="0.360444" stop-color="#E9628E"/>
<stop offset="0.447917" stop-color="#FF5E69"/>
<stop offset="0.71875" stop-color="#FF8A56"/>
<stop offset="1" stop-color="#FFA84B"/>
</linearGradient>
<linearGradient id="paint13_linear_4180_7125" x1="112.09" y1="98.0449" x2="27.2701" y2="76.335" gradientUnits="userSpaceOnUse">
<stop offset="0.140625" stop-color="#B16CEA"/>
<stop offset="0.360444" stop-color="#E9628E"/>
<stop offset="0.447917" stop-color="#FF5E69"/>
<stop offset="0.71875" stop-color="#FF8A56"/>
<stop offset="1" stop-color="#FFA84B"/>
</linearGradient>
<linearGradient id="paint14_linear_4180_7125" x1="365.868" y1="257.119" x2="230.124" y2="222.368" gradientUnits="userSpaceOnUse">
<stop offset="0.140625" stop-color="#B16CEA"/>
<stop offset="0.360444" stop-color="#E9628E"/>
<stop offset="0.447917" stop-color="#FF5E69"/>
<stop offset="0.71875" stop-color="#FF8A56"/>
<stop offset="1" stop-color="#FFA84B"/>
</linearGradient>
<linearGradient id="paint15_linear_4180_7125" x1="43.9147" y1="130.173" x2="-15.7332" y2="114.903" gradientUnits="userSpaceOnUse">
<stop offset="0.140625" stop-color="#B16CEA"/>
<stop offset="0.360444" stop-color="#E9628E"/>
<stop offset="0.447917" stop-color="#FF5E69"/>
<stop offset="0.71875" stop-color="#FF8A56"/>
<stop offset="1" stop-color="#FFA84B"/>
</linearGradient>
<linearGradient id="paint16_linear_4180_7125" x1="407.913" y1="270.142" x2="348.265" y2="254.872" gradientUnits="userSpaceOnUse">
<stop offset="0.140625" stop-color="#B16CEA"/>
<stop offset="0.360444" stop-color="#E9628E"/>
<stop offset="0.447917" stop-color="#FF5E69"/>
<stop offset="0.71875" stop-color="#FF8A56"/>
<stop offset="1" stop-color="#FFA84B"/>
</linearGradient>
<linearGradient id="paint17_linear_4180_7125" x1="43.9147" y1="199.451" x2="-15.7332" y2="184.181" gradientUnits="userSpaceOnUse">
<stop offset="0.140625" stop-color="#B16CEA"/>
<stop offset="0.360444" stop-color="#E9628E"/>
<stop offset="0.447917" stop-color="#FF5E69"/>
<stop offset="0.71875" stop-color="#FF8A56"/>
<stop offset="1" stop-color="#FFA84B"/>
</linearGradient>
<linearGradient id="paint18_linear_4180_7125" x1="296.28" y1="52.147" x2="244.625" y2="38.9231" gradientUnits="userSpaceOnUse">
<stop offset="0.140625" stop-color="#B16CEA"/>
<stop offset="0.360444" stop-color="#E9628E"/>
<stop offset="0.447917" stop-color="#FF5E69"/>
<stop offset="0.71875" stop-color="#FF8A56"/>
<stop offset="1" stop-color="#FFA84B"/>
</linearGradient>
<linearGradient id="paint19_linear_4180_7125" x1="311.377" y1="141.149" x2="190.33" y2="95.5002" gradientUnits="userSpaceOnUse">
<stop offset="0.140625" stop-color="#B16CEA"/>
<stop offset="0.360444" stop-color="#E9628E"/>
<stop offset="0.447917" stop-color="#FF5E69"/>
<stop offset="0.71875" stop-color="#FF8A56"/>
<stop offset="1" stop-color="#FFA84B"/>
</linearGradient>
<linearGradient id="paint20_linear_4180_7125" x1="369.058" y1="177.825" x2="248.327" y2="165.064" gradientUnits="userSpaceOnUse">
<stop offset="0.140625" stop-color="#B16CEA"/>
<stop offset="0.360444" stop-color="#E9628E"/>
<stop offset="0.447917" stop-color="#FF5E69"/>
<stop offset="0.71875" stop-color="#FF8A56"/>
<stop offset="1" stop-color="#FFA84B"/>
</linearGradient>
<linearGradient id="paint21_linear_4180_7125" x1="106.765" y1="51.1609" x2="31.886" y2="2.73269" gradientUnits="userSpaceOnUse">
<stop offset="0.140625" stop-color="#B16CEA"/>
<stop offset="0.360444" stop-color="#E9628E"/>
<stop offset="0.447917" stop-color="#FF5E69"/>
<stop offset="0.71875" stop-color="#FF8A56"/>
<stop offset="1" stop-color="#FFA84B"/>
</linearGradient>
<linearGradient id="paint22_linear_4180_7125" x1="106.765" y1="272.733" x2="31.8859" y2="224.305" gradientUnits="userSpaceOnUse">
<stop offset="0.140625" stop-color="#B16CEA"/>
<stop offset="0.360444" stop-color="#E9628E"/>
<stop offset="0.447917" stop-color="#FF5E69"/>
<stop offset="0.71875" stop-color="#FF8A56"/>
<stop offset="1" stop-color="#FFA84B"/>
</linearGradient>
<linearGradient id="paint23_linear_4180_7125" x1="442.049" y1="176.227" x2="367.17" y2="127.799" gradientUnits="userSpaceOnUse">
<stop offset="0.140625" stop-color="#B16CEA"/>
<stop offset="0.360444" stop-color="#E9628E"/>
<stop offset="0.447917" stop-color="#FF5E69"/>
<stop offset="0.71875" stop-color="#FF8A56"/>
<stop offset="1" stop-color="#FFA84B"/>
</linearGradient>
<linearGradient id="paint24_linear_4180_7125" x1="103.431" y1="249.752" x2="88.3132" y2="248.525" gradientUnits="userSpaceOnUse">
<stop offset="0.140625" stop-color="#B16CEA"/>
<stop offset="0.360444" stop-color="#E9628E"/>
<stop offset="0.447917" stop-color="#FF5E69"/>
<stop offset="0.71875" stop-color="#FF8A56"/>
<stop offset="1" stop-color="#FFA84B"/>
</linearGradient>
<linearGradient id="paint25_linear_4180_7125" x1="296.212" y1="272.733" x2="219.393" y2="161.654" gradientUnits="userSpaceOnUse">
<stop offset="0.140625" stop-color="#B16CEA"/>
<stop offset="0.360444" stop-color="#E9628E"/>
<stop offset="0.447917" stop-color="#FF5E69"/>
<stop offset="0.71875" stop-color="#FF8A56"/>
<stop offset="1" stop-color="#FFA84B"/>
</linearGradient>
<linearGradient id="paint26_linear_4180_7125" x1="260.877" y1="296.594" x2="125.867" y2="174.149" gradientUnits="userSpaceOnUse">
<stop offset="0.140625" stop-color="#B16CEA"/>
<stop offset="0.360444" stop-color="#E9628E"/>
<stop offset="0.447917" stop-color="#FF5E69"/>
<stop offset="0.71875" stop-color="#FF8A56"/>
<stop offset="1" stop-color="#FFA84B"/>
</linearGradient>
<linearGradient id="paint27_linear_4180_7125" x1="100.511" y1="274.53" x2="81.3291" y2="270.493" gradientUnits="userSpaceOnUse">
<stop offset="0.140625" stop-color="#B16CEA"/>
<stop offset="0.360444" stop-color="#E9628E"/>
<stop offset="0.447917" stop-color="#FF5E69"/>
<stop offset="0.71875" stop-color="#FF8A56"/>
<stop offset="1" stop-color="#FFA84B"/>
</linearGradient>
<linearGradient id="paint28_linear_4180_7125" x1="231.676" y1="297.017" x2="104.161" y2="198.067" gradientUnits="userSpaceOnUse">
<stop offset="0.140625" stop-color="#B16CEA"/>
<stop offset="0.360444" stop-color="#E9628E"/>
<stop offset="0.447917" stop-color="#FF5E69"/>
<stop offset="0.71875" stop-color="#FF8A56"/>
<stop offset="1" stop-color="#FFA84B"/>
</linearGradient>
<linearGradient id="paint29_linear_4180_7125" x1="229.743" y1="299.527" x2="231.895" y2="285.754" gradientUnits="userSpaceOnUse">
<stop offset="0.140625" stop-color="#B16CEA"/>
<stop offset="0.360444" stop-color="#E9628E"/>
<stop offset="0.447917" stop-color="#FF5E69"/>
<stop offset="0.71875" stop-color="#FF8A56"/>
<stop offset="1" stop-color="#FFA84B"/>
</linearGradient>
<linearGradient id="paint30_linear_4180_7125" x1="228.351" y1="305.645" x2="230.162" y2="295.168" gradientUnits="userSpaceOnUse">
<stop offset="0.140625" stop-color="#B16CEA"/>
<stop offset="0.360444" stop-color="#E9628E"/>
<stop offset="0.447917" stop-color="#FF5E69"/>
<stop offset="0.71875" stop-color="#FF8A56"/>
<stop offset="1" stop-color="#FFA84B"/>
</linearGradient>
<linearGradient id="paint31_linear_4180_7125" x1="230.88" y1="294.453" x2="232.198" y2="287.559" gradientUnits="userSpaceOnUse">
<stop offset="0.140625" stop-color="#B16CEA"/>
<stop offset="0.360444" stop-color="#E9628E"/>
<stop offset="0.447917" stop-color="#FF5E69"/>
<stop offset="0.71875" stop-color="#FF8A56"/>
<stop offset="1" stop-color="#FFA84B"/>
</linearGradient>
<linearGradient id="paint32_linear_4180_7125" x1="225.412" y1="298.98" x2="190.736" y2="283.871" gradientUnits="userSpaceOnUse">
<stop offset="0.140625" stop-color="#B16CEA"/>
<stop offset="0.360444" stop-color="#E9628E"/>
<stop offset="0.447917" stop-color="#FF5E69"/>
<stop offset="0.71875" stop-color="#FF8A56"/>
<stop offset="1" stop-color="#FFA84B"/>
</linearGradient>
<linearGradient id="paint33_linear_4180_7125" x1="222.06" y1="298.179" x2="209.444" y2="293.204" gradientUnits="userSpaceOnUse">
<stop offset="0.140625" stop-color="#B16CEA"/>
<stop offset="0.360444" stop-color="#E9628E"/>
<stop offset="0.447917" stop-color="#FF5E69"/>
<stop offset="0.71875" stop-color="#FF8A56"/>
<stop offset="1" stop-color="#FFA84B"/>
</linearGradient>
<linearGradient id="paint34_linear_4180_7125" x1="285.053" y1="45.9322" x2="130.932" y2="-70.6423" gradientUnits="userSpaceOnUse">
<stop offset="0.140625" stop-color="#B16CEA"/>
<stop offset="0.360444" stop-color="#E9628E"/>
<stop offset="0.447917" stop-color="#FF5E69"/>
<stop offset="0.71875" stop-color="#FF8A56"/>
<stop offset="1" stop-color="#FFA84B"/>
</linearGradient>
<linearGradient id="paint35_linear_4180_7125" x1="264.879" y1="12.2894" x2="245.078" y2="8.02083" gradientUnits="userSpaceOnUse">
<stop offset="0.140625" stop-color="#B16CEA"/>
<stop offset="0.360444" stop-color="#E9628E"/>
<stop offset="0.447917" stop-color="#FF5E69"/>
<stop offset="0.71875" stop-color="#FF8A56"/>
<stop offset="1" stop-color="#FFA84B"/>
</linearGradient>
<linearGradient id="paint36_linear_4180_7125" x1="280.32" y1="40.8592" x2="138.573" y2="-51.9253" gradientUnits="userSpaceOnUse">
<stop offset="0.140625" stop-color="#B16CEA"/>
<stop offset="0.360444" stop-color="#E9628E"/>
<stop offset="0.447917" stop-color="#FF5E69"/>
<stop offset="0.71875" stop-color="#FF8A56"/>
<stop offset="1" stop-color="#FFA84B"/>
</linearGradient>
<linearGradient id="paint37_linear_4180_7125" x1="121.828" y1="45.8388" x2="126.651" y2="58.9186" gradientUnits="userSpaceOnUse">
<stop offset="0.140625" stop-color="#B16CEA"/>
<stop offset="0.360444" stop-color="#E9628E"/>
<stop offset="0.447917" stop-color="#FF5E69"/>
<stop offset="0.71875" stop-color="#FF8A56"/>
<stop offset="1" stop-color="#FFA84B"/>
</linearGradient>
<linearGradient id="paint38_linear_4180_7125" x1="120.063" y1="39.8224" x2="123.579" y2="49.8561" gradientUnits="userSpaceOnUse">
<stop offset="0.140625" stop-color="#B16CEA"/>
<stop offset="0.360444" stop-color="#E9628E"/>
<stop offset="0.447917" stop-color="#FF5E69"/>
<stop offset="0.71875" stop-color="#FF8A56"/>
<stop offset="1" stop-color="#FFA84B"/>
</linearGradient>
<linearGradient id="paint39_linear_4180_7125" x1="123.285" y1="50.828" x2="125.489" y2="57.4925" gradientUnits="userSpaceOnUse">
<stop offset="0.140625" stop-color="#B16CEA"/>
<stop offset="0.360444" stop-color="#E9628E"/>
<stop offset="0.447917" stop-color="#FF5E69"/>
<stop offset="0.71875" stop-color="#FF8A56"/>
<stop offset="1" stop-color="#FFA84B"/>
</linearGradient>
<linearGradient id="paint40_linear_4180_7125" x1="158.775" y1="43.3554" x2="123.988" y2="28.2577" gradientUnits="userSpaceOnUse">
<stop offset="0.140625" stop-color="#B16CEA"/>
<stop offset="0.360444" stop-color="#E9628E"/>
<stop offset="0.447917" stop-color="#FF5E69"/>
<stop offset="0.71875" stop-color="#FF8A56"/>
<stop offset="1" stop-color="#FFA84B"/>
</linearGradient>
<linearGradient id="paint41_linear_4180_7125" x1="140.694" y1="43.1305" x2="128.242" y2="38.3704" gradientUnits="userSpaceOnUse">
<stop offset="0.140625" stop-color="#B16CEA"/>
<stop offset="0.360444" stop-color="#E9628E"/>
<stop offset="0.447917" stop-color="#FF5E69"/>
<stop offset="0.71875" stop-color="#FF8A56"/>
<stop offset="1" stop-color="#FFA84B"/>
</linearGradient>
<linearGradient id="paint42_linear_4180_7125" x1="182.802" y1="179.59" x2="-1.57432" y2="98.515" gradientUnits="userSpaceOnUse">
<stop offset="0.140625" stop-color="#B16CEA"/>
<stop offset="0.360444" stop-color="#E9628E"/>
<stop offset="0.447917" stop-color="#FF5E69"/>
<stop offset="0.71875" stop-color="#FF8A56"/>
<stop offset="1" stop-color="#FFA84B"/>
</linearGradient>
<linearGradient id="paint43_linear_4180_7125" x1="397.352" y1="167.53" x2="397.099" y2="160.316" gradientUnits="userSpaceOnUse">
<stop offset="0.140625" stop-color="#B16CEA"/>
<stop offset="0.360444" stop-color="#E9628E"/>
<stop offset="0.447917" stop-color="#FF5E69"/>
<stop offset="0.71875" stop-color="#FF8A56"/>
<stop offset="1" stop-color="#FFA84B"/>
</linearGradient>
</defs>
</svg>
